Coordinates
version=1
nRows=7
nColumns=40
inDegrees=yes

Units are S.I. units (second, meters, Newtons, ...)
Angles are in degrees.

endheader
time	pelvis_tilt	pelvis_list	pelvis_rotation	pelvis_tx	pelvis_ty	pelvis_tz	hip_flexion_r	hip_adduction_r	hip_rotation_r	knee_angle_r	knee_angle_r_beta	ankle_angle_r	subtalar_angle_r	mtp_angle_r	hip_flexion_l	hip_adduction_l	hip_rotation_l	knee_angle_l	knee_angle_l_beta	ankle_angle_l	subtalar_angle_l	mtp_angle_l	lumbar_extension	lumbar_bending	lumbar_rotation	arm_flex_r	arm_add_r	arm_rot_r	elbow_flex_r	pro_sup_r	wrist_flex_r	wrist_dev_r	arm_flex_l	arm_add_l	arm_rot_l	elbow_flex_l	pro_sup_l	wrist_flex_l	wrist_dev_l
      4.68500000	     -2.25442573	     -5.66963979	     -2.36411813	      1.07387359	      0.93618718	      0.41902706	     27.94586083	     -2.80850758	     -5.57022601	     40.53256343	     40.53256343	      2.95520593	     -5.99041249	     -1.51233696	     11.32031378	     -6.28663214	     -8.28269401	     21.41409854	     21.41409854	     13.89117228	    -12.42030298	     -0.27219797	    -11.36601191	      5.49313308	      0.41544060	     -2.70261639	    -15.85290106	     -0.66826019	     30.94422781	     46.44047223	      0.00000000	      0.00000000	     17.27587944	    -17.95079582	     -0.27304583	     62.37326331	     46.21305632	      0.00000000	      0.00000000
      4.69857143	     -2.47813120	     -5.75245230	     -2.88610333	      1.07280930	      0.93621450	      0.41985454	     27.82473064	     -2.44534417	     -6.06535586	     36.24138143	     36.24138143	      2.90530393	     -4.37043480	     -1.22453236	     10.96188887	     -6.43140002	     -8.70142618	     21.05538739	     21.05538739	     13.97895707	    -12.46283467	     -0.33241019	    -11.37058903	      5.53122084	      0.43628932	     -3.14451322	    -15.80796518	     -0.89803286	     30.98403710	     46.44538960	      0.00000000	      0.00000000	     18.01700665	    -18.21147833	     -0.27486263	     63.58855899	     46.24412314	      0.00000000	      0.00000000
      4.71214286	     -2.65874968	     -5.70997971	     -3.41512746	      1.07186795	      0.93614482	      0.42071078	     27.55241712	     -2.26011823	     -6.81775806	     31.81712614	     31.81712614	      2.58622738	     -2.03718688	     -1.72349669	     10.49459550	     -6.44241047	     -9.23621381	     20.58306894	     20.58306894	     13.93990163	    -12.40430878	     -0.67789196	    -11.50838663	      5.39931824	      0.48788805	     -3.66509338	    -15.59434137	     -1.92108296	     31.49166786	     46.47092558	      0.00000000	      0.00000000	     18.33495332	    -18.73179219	      0.00039267	     66.21903321	     46.30101859	      0.00000000	      0.00000000
      4.72571429	     -2.95496152	     -5.75695136	     -3.86252336	      1.07087398	      0.93591639	      0.42162060	     27.25785102	     -1.82265919	     -7.43360002	     27.21888279	     27.21888279	      2.16061119	     -0.14903627	     -1.05229528	     10.27460872	     -6.54950769	     -9.58080852	     20.31503831	     20.31503831	     14.02390012	    -12.50424701	     -0.78310956	    -11.43030939	      5.45964338	      0.44989387	     -3.89558643	    -15.46178002	     -2.18707715	     31.54706264	     46.47868887	      0.00000000	      0.00000000	     19.03318033	    -18.95460303	     -0.02698082	     67.09886844	     46.33299401	      0.00000000	      0.00000000
      4.73928571	     -3.24313112	     -5.71533601	     -4.29044913	      1.07004720	      0.93551231	      0.42264117	     26.91458628	     -1.46522344	     -8.16249754	     22.75391070	     22.75391070	      1.75445505	      2.16765483	     -0.28645895	     10.00399622	     -6.56970014	     -9.95218429	     19.98618672	     19.98618672	     14.11339167	    -12.46413101	     -0.92433334	    -11.33836030	      5.37031956	      0.48136224	     -4.12756944	    -15.27389643	     -2.45559911	     31.62951862	     46.48575331	      0.00000000	      0.00000000	     19.70380214	    -19.09374017	     -0.00427459	     68.12049757	     46.36253237	      0.00000000	      0.00000000
      4.75285714	     -3.35569745	     -5.59306548	     -4.66793216	      1.06946992	      0.93519784	      0.42363401	     26.37421356	     -1.25215663	     -9.21271348	     18.57741738	     18.57741738	      1.33148607	      5.04881121	      0.73967266	      9.52853619	     -6.49632265	    -10.41662976	     19.64845418	     19.64845418	     14.22475022	    -12.30460939	     -1.22444382	    -11.42784249	      5.18660741	      0.54451761	     -4.29932590	    -15.05074807	     -2.99359842	     31.87091915	     46.50038163	      0.00000000	      0.00000000	     20.34057978	    -19.30076753	      0.10951933	     69.49944223	     46.39972660	      0.00000000	      0.00000000
      4.76642857	     -3.71058838	     -5.42263261	     -4.98873055	      1.06892680	      0.93442717	      0.42470211	     26.15008489	     -0.97773548	     -9.91271006	     14.81244019	     14.81244019	      0.69791948	      7.06498999	      1.98479756	      9.35980788	     -6.37723051	    -10.73315056	     19.35646099	     19.35646099	     14.35076046	    -12.23690761	     -1.42347798	    -11.15909127	      5.02793199	      0.50660167	     -4.48123861	    -14.73639209	     -3.23817601	     31.99094170	     46.50460210	      0.00000000	      0.00000000	     20.82783663	    -19.33263802	      0.21000935	     70.30898148	     46.41911192	      0.00000000	      0.00000000
